#N canvas -3 51 1440 823 10;
#X obj -218 176 cnv 15 330 300 empty empty FILES_TO_SOUND 20 12 0 14
-233017 -66577 0;
#N canvas 619 144 450 300 waitBeforeNewOne 0;
#X obj 58 33 inlet;
#X msg 81 129 0 0 0 0 0 0 0 0 0;
#X obj 58 249 outlet;
#X obj 308 33 inlet;
#X obj 58 55 t b b b;
#X msg 104 79 0;
#X obj 104 101 s metroOnOff;
#X obj 68 177 delay 6000;
#X connect 0 0 4 0;
#X connect 4 0 2 0;
#X connect 4 1 1 0;
#X connect 4 2 5 0;
#X connect 5 0 6 0;
#X restore -55 287 pd waitBeforeNewOne;
#X obj -115 318 *~ 1;
#X obj -85 338 *~ 1;
#X obj -115 400 dac~;
#N canvas 0 51 450 300 outHip 0;
#X obj 57 33 inlet~;
#X obj 57 55 hip~ 20;
#X obj 57 77 hip~ 20;
#X obj 57 99 outlet~;
#X obj 137 33 inlet~;
#X obj 137 55 hip~ 20;
#X obj 137 77 hip~ 20;
#X obj 137 99 outlet~;
#X connect 0 0 1 0;
#X connect 1 0 2 0;
#X connect 2 0 3 0;
#X connect 4 0 5 0;
#X connect 5 0 6 0;
#X connect 6 0 7 0;
#X restore -115 375 pd outHip;
#X obj -115 267 readsf~ 2;
#X obj -55 310 s selectNewFile;
#X msg -205 239 stop;
#X obj -218 -230 cnv 15 350 170 empty empty empty 20 12 0 14 -233017
-66577 0;
#N canvas 592 107 642 537 gpioSetup 0;
#X obj 53 -27 inlet;
#X obj 53 85 gpio/setGpioOut 4;
#X obj 63 135 gpio/setGpioOut 17;
#X obj 73 185 gpio/setGpioOut 27;
#X obj 193 85 gpio/setGpioOut 22;
#X obj 203 135 gpio/setGpioOut 10;
#X obj 213 185 gpio/setGpioOut 9;
#X obj 333 85 gpio/setGpioOut 11;
#X obj 343 136 gpio/setGpioOut 8;
#X obj 353 185 gpio/setGpioOut 7;
#X obj 83 235 gpio/setGpioIn 14;
#X obj 93 285 gpio/setGpioIn 23;
#X obj 223 235 gpio/setGpioIn 15;
#X obj 363 235 gpio/setGpioIn 18;
#X obj 373 286 gpio/setGpioIn 25;
#X obj 233 285 gpio/setGpioIn 24;
#X connect 0 0 1 0;
#X connect 0 0 4 0;
#X connect 0 0 7 0;
#X connect 0 0 2 0;
#X connect 0 0 5 0;
#X connect 0 0 8 0;
#X connect 0 0 3 0;
#X connect 0 0 6 0;
#X connect 0 0 9 0;
#X connect 0 0 10 0;
#X connect 0 0 11 0;
#X connect 0 0 12 0;
#X connect 0 0 13 0;
#X connect 0 0 14 0;
#X connect 0 0 15 0;
#X restore -197 -128 pd gpioSetup;
#X obj -197 -223 loadbang;
#X obj -95 -223 loadbang;
#X msg -95 -179 \; pd dsp 1 \;;
#X obj -5 -223 loadbang;
#X msg 15 -179 1;
#X obj 15 -159 s startInput;
#X obj 242 466 cnv 15 700 300 empty empty empty 20 12 0 14 -233017
-66577 0;
#N canvas 571 51 515 411 to8BitsOutput 0;
#X obj 77 183 int;
#X obj 77 141 % 256;
#X obj 77 161 / 128;
#X obj 117 183 int;
#X obj 117 141 % 128;
#X obj 117 161 / 64;
#X obj 157 183 int;
#X obj 197 183 int;
#X obj 157 141 % 64;
#X obj 157 161 / 32;
#X obj 197 141 % 32;
#X obj 197 161 / 16;
#X obj 237 183 int;
#X obj 277 183 int;
#X obj 307 183 int;
#X obj 237 141 % 16;
#X obj 237 161 / 8;
#X obj 277 141 % 8;
#X obj 277 161 / 4;
#X obj 307 141 % 4;
#X obj 307 161 / 2;
#X obj 337 183 int;
#X obj 337 141 % 2;
#X obj 337 161 / 1;
#X obj 137 279 outlet;
#X obj 77 279 outlet;
#X obj 77 22 inlet;
#X obj 77 257 pack f f f f f f f f;
#X obj 77 44 t f f;
#X connect 0 0 27 0;
#X connect 1 0 2 0;
#X connect 2 0 0 0;
#X connect 3 0 27 1;
#X connect 4 0 5 0;
#X connect 5 0 3 0;
#X connect 6 0 27 2;
#X connect 7 0 27 3;
#X connect 8 0 9 0;
#X connect 9 0 6 0;
#X connect 10 0 11 0;
#X connect 11 0 7 0;
#X connect 12 0 27 4;
#X connect 13 0 27 5;
#X connect 14 0 27 6;
#X connect 15 0 16 0;
#X connect 16 0 12 0;
#X connect 17 0 18 0;
#X connect 18 0 13 0;
#X connect 19 0 20 0;
#X connect 20 0 14 0;
#X connect 21 0 27 7;
#X connect 22 0 23 0;
#X connect 23 0 21 0;
#X connect 26 0 28 0;
#X connect 27 0 25 0;
#X connect 28 0 1 0;
#X connect 28 1 4 0;
#X connect 28 1 8 0;
#X connect 28 1 10 0;
#X connect 28 1 15 0;
#X connect 28 1 17 0;
#X connect 28 1 19 0;
#X connect 28 1 22 0;
#X restore 260 760 pd to8BitsOutput;
#X obj 260 782 gpio/sendToGpio 7 8 17 11 9 10 22 27;
#N canvas 0 0 450 300 (subpatch) 0;
#X array file0 160000 float 2;
#X coords 0 1 160000 -1 600 140 1 0 0;
#X restore 457 -58 graph;
#X msg -5 -109 0;
#X obj -5 -87 s position;
#X obj 260 498 r position;
#N canvas 0 22 450 300 mapTo8BitsNumber 0;
#X obj 67 37 inlet;
#X obj 67 59 + 1;
#X obj 67 125 int;
#X obj 67 147 outlet;
#X obj 67 81 / 2;
#X obj 67 103 * 255;
#X connect 0 0 1 0;
#X connect 1 0 4 0;
#X connect 2 0 3 0;
#X connect 4 0 5 0;
#X connect 5 0 2 0;
#X restore 260 539 pd mapTo8BitsNumber;
#X floatatom 270 561 5 0 0 0 - - -;
#X obj -205 214 r stopSound;
#X obj -115 214 r newFile;
#N canvas 641 124 450 300 toReadsf 0;
#X obj 83 91 list prepend open;
#X obj 83 135 list trim;
#X obj 83 113 list append 0 1 2 2 b;
#X obj 83 157 t b a;
#X obj 83 201 outlet;
#X obj 83 69 inlet;
#X connect 0 0 2 0;
#X connect 1 0 3 0;
#X connect 2 0 1 0;
#X connect 3 1 4 0;
#X connect 5 0 0 0;
#X restore -115 236 pd toReadsf;
#X obj 132 82 cnv 15 200 300 empty empty empty 20 12 0 14 -233017 -66577
0;
#X obj 172 123 bng 15 250 50 0 empty empty empty 17 7 0 10 -262144
-1 -1;
#N canvas 716 51 567 468 files 0;
#X obj 53 38 inlet;
#X obj 53 246 outlet;
#X obj 53 60 sel 0 1 2 3 4 5 6;
#X msg 119 255 open ../tif/arina_02.tif 0 1 2 2 b \, 1;
#X msg 119 280 open ../tif/arina2_02.tif 0 1 2 2 b \, 1;
#X msg 53 89 ../tif/mamie2.tif;
#X msg 70 110 ../tif/rockEnSeine.tif;
#X msg 102 154 ../tif/arina2_02.tif;
#X msg 119 175 ../tif/1_dim100i.tif;
#X msg 135 196 ../tif/arina_02.tif;
#X msg 152 216 ../tif/mamie3.tif;
#X msg 119 313 ../tif/ardenne-1p.tif;
#X msg 86 133 ../tif/mamie3.tif;
#X connect 0 0 2 0;
#X connect 2 0 12 0;
#X connect 2 1 6 0;
#X connect 2 2 5 0;
#X connect 2 3 7 0;
#X connect 2 4 8 0;
#X connect 2 5 9 0;
#X connect 2 6 10 0;
#X connect 5 0 1 0;
#X connect 6 0 1 0;
#X connect 7 0 1 0;
#X connect 8 0 1 0;
#X connect 9 0 1 0;
#X connect 10 0 1 0;
#X connect 12 0 1 0;
#X restore 172 194 pd files;
#X msg 182 236 1;
#X obj 182 258 s metroOnOff;
#X obj 172 145 f 0;
#X obj 202 145 + 1;
#X floatatom 202 170 5 0 0 0 - - -;
#X obj 172 167 % 7;
#X obj 172 286 s newFile;
#X obj 182 216 print FILE;
#X obj -218 497 cnv 15 440 190 empty empty empty 20 12 0 14 -233017
-66577 0;
#X obj -206 510 r newFile;
#X obj -206 576 list trim;
#X floatatom -176 620 8 0 0 0 - - -;
#X obj -206 598 soundfiler;
#X obj -206 554 list append file0;
#X floatatom 416 497 5 0 0 0 - - -;
#X obj 416 516 s position;
#X obj 416 536 r position;
#X floatatom 416 558 5 0 0 0 - - -;
#X obj 260 520 tabread file0;
#N canvas 458 195 879 572 inputOutput 0;
#X obj 40 55 cnv 15 350 130 empty empty empty 20 12 0 14 -233017 -66577
0;
#N canvas 690 494 450 300 gpioOutput 0;
#X obj 88 58 r gpio4;
#X obj 88 80 gpio 4;
#X obj 158 58 r gpio17;
#X obj 230 58 r gpio27;
#X obj 88 108 r gpio22;
#X obj 158 108 r gpio10;
#X obj 230 108 r gpio9;
#X obj 88 158 r gpio11;
#X obj 158 158 r gpio7;
#X obj 230 158 r gpio8;
#X obj 158 80 gpio 17;
#X obj 230 80 gpio 27;
#X obj 88 130 gpio 22;
#X obj 158 130 gpio 10;
#X obj 230 130 gpio 9;
#X obj 88 180 gpio 11;
#X obj 158 180 gpio 7;
#X obj 230 180 gpio 8;
#X connect 0 0 1 0;
#X connect 2 0 10 0;
#X connect 3 0 11 0;
#X connect 4 0 12 0;
#X connect 5 0 13 0;
#X connect 6 0 14 0;
#X connect 7 0 15 0;
#X connect 8 0 16 0;
#X connect 9 0 17 0;
#X restore 58 91 pd gpioOutput;
#X obj 58 120 tgl 15 0 empty empty empty 17 7 0 10 -262144 -1 -1 0
1;
#X obj 98 120 tgl 15 0 empty empty empty 17 7 0 10 -262144 -1 -1 0
1;
#X obj 140 120 tgl 15 0 empty empty empty 17 7 0 10 -262144 -1 -1 0
1;
#X obj 178 120 tgl 15 0 empty empty empty 17 7 0 10 -262144 -1 -1 0
1;
#X obj 218 120 tgl 15 0 empty empty empty 17 7 0 10 -262144 -1 -1 0
1;
#X obj 260 120 tgl 15 0 empty empty empty 17 7 0 10 -262144 -1 -1 0
1;
#X obj 298 120 tgl 15 0 empty empty empty 17 7 0 10 -262144 -1 -1 0
1;
#X obj 338 120 tgl 15 0 empty empty empty 17 7 0 10 -262144 -1 -1 0
1;
#N canvas 64 541 450 300 gpioOutputTable 0;
#X obj 158 80 s gpio17;
#X obj 230 80 s gpio27;
#X obj 88 130 s gpio22;
#X obj 158 130 s gpio10;
#X obj 230 130 s gpio9;
#X obj 88 180 s gpio11;
#X obj 158 180 s gpio7;
#X obj 230 180 s gpio8;
#X obj 88 58 r;
#X obj 88 80 s gpio4;
#X obj 158 58 r l3;
#X obj 230 58 r l8;
#X obj 88 108 r l7;
#X obj 158 108 r l6;
#X obj 230 108 r l5;
#X obj 88 158 r l4;
#X obj 158 158 r l1;
#X obj 230 158 r l2;
#X connect 10 0 0 0;
#X connect 11 0 1 0;
#X connect 12 0 2 0;
#X connect 13 0 3 0;
#X connect 14 0 4 0;
#X connect 15 0 5 0;
#X connect 16 0 6 0;
#X connect 17 0 7 0;
#X restore 58 71 pd gpioOutputTable;
#X obj 58 140 s l1;
#X obj 98 140 s l2;
#X obj 140 140 s l3;
#X obj 178 140 s l4;
#X obj 218 140 s l5;
#X obj 260 140 s l6;
#X obj 298 140 s l7;
#X obj 338 140 s l8;
#X obj 397 55 cnv 15 200 500 empty empty empty 20 12 0 14 -233017 -66577
0;
#N canvas 340 370 980 410 gpioInput 0;
#X obj 71 51 inlet;
#X obj -49 153 gpio 14;
#X obj -49 265 outlet;
#X obj 11 265 outlet;
#X obj 71 265 outlet;
#X obj 131 265 outlet;
#X obj 191 265 outlet;
#X obj 252 265 outlet;
#X obj 11 153 gpio 15;
#X obj 71 153 gpio 18;
#X obj 131 153 gpio 23;
#X obj 191 153 gpio 24;
#X obj 252 153 gpio 25;
#X obj -59 93 r gpio14;
#X obj 1 113 r gpio15;
#X obj 61 93 r gpio18;
#X obj 121 113 r gpio23;
#X obj 181 93 r gpio24;
#X obj 242 113 r gpio25;
#X msg 371 213 0;
#X obj 371 235 spigot 1;
#X obj 371 265 outlet;
#X obj 424 205 expr if($f1 == 1 || $f2 == 1 || $f3 == 1 || $f4 == 1
\, 0 \, 1);
#X connect 0 0 1 0;
#X connect 0 0 8 0;
#X connect 0 0 9 0;
#X connect 0 0 10 0;
#X connect 0 0 11 0;
#X connect 0 0 12 0;
#X connect 0 0 19 0;
#X connect 1 0 2 0;
#X connect 8 0 3 0;
#X connect 9 0 4 0;
#X connect 9 0 22 0;
#X connect 10 0 5 0;
#X connect 10 0 22 1;
#X connect 11 0 6 0;
#X connect 11 0 22 2;
#X connect 12 0 7 0;
#X connect 12 0 22 3;
#X connect 13 0 1 0;
#X connect 14 0 8 0;
#X connect 15 0 9 0;
#X connect 16 0 10 0;
#X connect 17 0 11 0;
#X connect 18 0 12 0;
#X connect 19 0 20 0;
#X connect 20 0 21 0;
#X connect 22 0 20 1;
#X restore 420 111 pd gpioInput;
#X obj 420 133 tgl 15 0 empty empty empty 17 7 0 10 -262144 -1 -1 0
1;
#X obj 436 153 tgl 15 0 empty empty empty 17 7 0 10 -262144 -1 -1 0
1;
#X obj 452 133 tgl 15 0 empty empty empty 17 7 0 10 -262144 -1 -1 0
1;
#X obj 468 153 tgl 15 0 empty empty empty 17 7 0 10 -262144 -1 -1 0
1;
#X obj 484 133 tgl 15 0 empty empty empty 17 7 0 10 -262144 -1 -1 0
1;
#X obj 501 153 tgl 15 0 empty empty empty 17 7 0 10 -262144 -1 -1 0
1;
#X obj 436 193 s speed;
#X obj 420 173 s stop;
#X obj 452 213 s iD;
#X obj 468 233 s iG;
#X obj 484 253 s iH;
#X obj 501 273 s iB;
#N canvas 30 107 1008 324 joystickDirection 0;
#X obj 528 132 &;
#X obj 568 132 &;
#X obj 608 132 &;
#X obj 648 132 &;
#X obj 528 214 outlet;
#X obj 568 234 outlet;
#X obj 608 214 outlet;
#X obj 648 234 outlet;
#X obj -142 -5 r iH;
#X obj -92 -5 r iB;
#X obj -42 -5 r iD;
#X obj 8 -5 r iG;
#X obj -142 239 outlet;
#X obj -92 259 outlet;
#X obj -42 239 outlet;
#X obj 8 259 outlet;
#X floatatom 648 154 5 0 0 0 - - -;
#X floatatom 608 154 5 0 0 0 - - -;
#X floatatom 568 154 5 0 0 0 - - -;
#X floatatom 528 154 5 0 0 0 - - -;
#X floatatom 57 196 5 0 0 0 - - -;
#X obj -142 217 *;
#X obj -92 237 *;
#X obj -42 217 *;
#X obj 8 237 *;
#X obj 57 174 expr if($f1 == 1 || $f2 == 1 || $f3 == 1 || $f4 == 1
\, 0 \, 1);
#X connect 0 0 4 0;
#X connect 0 0 19 0;
#X connect 0 0 25 0;
#X connect 1 0 5 0;
#X connect 1 0 18 0;
#X connect 1 0 25 1;
#X connect 2 0 6 0;
#X connect 2 0 17 0;
#X connect 2 0 25 2;
#X connect 3 0 7 0;
#X connect 3 0 16 0;
#X connect 3 0 25 3;
#X connect 8 0 0 0;
#X connect 8 0 2 0;
#X connect 8 0 21 0;
#X connect 9 0 1 0;
#X connect 9 0 3 0;
#X connect 9 0 22 0;
#X connect 10 0 0 1;
#X connect 10 0 1 1;
#X connect 10 0 23 0;
#X connect 11 0 2 1;
#X connect 11 0 3 1;
#X connect 11 0 24 0;
#X connect 21 0 12 0;
#X connect 22 0 13 0;
#X connect 23 0 14 0;
#X connect 24 0 15 0;
#X connect 25 0 20 0;
#X connect 25 0 21 1;
#X connect 25 0 22 1;
#X connect 25 0 23 1;
#X connect 25 0 24 1;
#X restore 420 304 pd joystickDirection;
#X obj 420 68 r startInput;
#X obj 40 193 cnv 15 350 250 empty empty empty 20 12 0 14 -233017 -66577
0;
#X obj 61 220 r l1;
#X obj 61 241 tgl 15 0 empty empty empty 17 7 0 10 -262144 -1 -1 0
1;
#X obj 101 241 tgl 15 0 empty empty empty 17 7 0 10 -262144 -1 -1 0
1;
#X obj 143 241 tgl 15 0 empty empty empty 17 7 0 10 -262144 -1 -1 0
1;
#X obj 181 241 tgl 15 0 empty empty empty 17 7 0 10 -262144 -1 -1 0
1;
#X obj 221 241 tgl 15 0 empty empty empty 17 7 0 10 -262144 -1 -1 0
1;
#X obj 263 241 tgl 15 0 empty empty empty 17 7 0 10 -262144 -1 -1 0
1;
#X obj 301 241 tgl 15 0 empty empty empty 17 7 0 10 -262144 -1 -1 0
1;
#X obj 341 241 tgl 15 0 empty empty empty 17 7 0 10 -262144 -1 -1 0
1;
#X obj 101 220 r l2;
#X obj 143 220 r l3;
#X obj 181 220 r l4;
#X obj 221 220 r l5;
#X obj 263 220 r l6;
#X obj 301 220 r l7;
#X obj 341 220 r l8;
#X obj 201 371 tgl 15 0 empty empty empty 17 7 0 10 -262144 -1 -1 1
1;
#X obj 201 411 tgl 15 0 empty empty empty 17 7 0 10 -262144 -1 -1 1
1;
#X obj 181 391 tgl 15 0 empty empty empty 17 7 0 10 -262144 -1 -1 0
1;
#X obj 219 391 tgl 15 0 empty empty empty 17 7 0 10 -262144 -1 -1 1
1;
#X obj 181 371 tgl 15 0 empty empty empty 17 7 0 10 -262144 -1 -1 1
1;
#X obj 220 371 tgl 15 0 empty empty empty 17 7 0 10 -262144 -1 -1 0
1;
#X obj 181 411 tgl 15 0 empty empty empty 17 7 0 10 -262144 -1 -1 0
1;
#X obj 219 411 tgl 15 0 empty empty empty 17 7 0 10 -262144 -1 -1 0
1;
#X obj 71 353 tgl 15 0 empty empty empty 17 7 0 10 -262144 -1 -1 0
1;
#X obj 120 353 tgl 15 0 empty empty empty 17 7 0 10 -262144 -1 -1 0
1;
#X obj 71 332 r stop;
#X obj 120 332 r speed;
#X obj 420 326 sel 1;
#X msg 420 348 1;
#X obj 439 372 sel 1;
#X msg 439 394 2;
#X obj 459 416 sel 1;
#X obj 478 462 sel 1;
#X obj 498 326 sel 1;
#X obj 517 372 sel 1;
#X obj 537 416 sel 1;
#X obj 557 462 sel 1;
#X msg 459 438 4;
#X msg 478 484 3;
#X msg 498 348 5;
#X msg 537 439 6;
#X msg 517 394 7;
#X msg 557 484 8;
#X obj 420 510 t f;
#X obj 420 532 s joystickPointingTo;
#X obj 181 310 r joystickPointingTo;
#X obj 181 332 sel 1 2 3 4 5 6 7 8;
#X obj 317 366 metro 25;
#X msg 317 388 0;
#X obj 331 344 tgl 15 0 empty empty empty 17 7 0 10 -262144 -1 -1 0
1;
#X obj 420 90 metro 50;
#X obj 655 187 r joystickPointingTo;
#X floatatom 655 209 5 0 0 0 - - -;
#X connect 2 0 11 0;
#X connect 3 0 12 0;
#X connect 4 0 13 0;
#X connect 5 0 14 0;
#X connect 6 0 15 0;
#X connect 7 0 16 0;
#X connect 8 0 17 0;
#X connect 9 0 18 0;
#X connect 20 0 21 0;
#X connect 20 1 22 0;
#X connect 20 2 23 0;
#X connect 20 3 24 0;
#X connect 20 4 25 0;
#X connect 20 5 26 0;
#X connect 20 6 80 0;
#X connect 21 0 28 0;
#X connect 22 0 27 0;
#X connect 23 0 29 0;
#X connect 24 0 30 0;
#X connect 25 0 31 0;
#X connect 26 0 32 0;
#X connect 33 0 64 0;
#X connect 33 1 66 0;
#X connect 33 2 68 0;
#X connect 33 3 69 0;
#X connect 33 4 70 0;
#X connect 33 5 71 0;
#X connect 33 6 72 0;
#X connect 33 7 73 0;
#X connect 34 0 87 0;
#X connect 36 0 37 0;
#X connect 45 0 38 0;
#X connect 46 0 39 0;
#X connect 47 0 40 0;
#X connect 48 0 41 0;
#X connect 49 0 42 0;
#X connect 50 0 43 0;
#X connect 51 0 44 0;
#X connect 62 0 60 0;
#X connect 63 0 61 0;
#X connect 64 0 65 0;
#X connect 65 0 80 0;
#X connect 66 0 67 0;
#X connect 67 0 80 0;
#X connect 68 0 74 0;
#X connect 69 0 75 0;
#X connect 70 0 76 0;
#X connect 71 0 78 0;
#X connect 72 0 77 0;
#X connect 73 0 79 0;
#X connect 74 0 80 0;
#X connect 75 0 80 0;
#X connect 76 0 80 0;
#X connect 77 0 80 0;
#X connect 78 0 80 0;
#X connect 79 0 80 0;
#X connect 80 0 81 0;
#X connect 82 0 83 0;
#X connect 83 0 52 0;
#X connect 83 1 53 0;
#X connect 83 2 54 0;
#X connect 83 3 55 0;
#X connect 83 4 56 0;
#X connect 83 5 57 0;
#X connect 83 6 58 0;
#X connect 83 7 59 0;
#X connect 84 0 85 0;
#X connect 85 0 56 0;
#X connect 85 0 52 0;
#X connect 85 0 57 0;
#X connect 85 0 54 0;
#X connect 85 0 55 0;
#X connect 85 0 58 0;
#X connect 85 0 53 0;
#X connect 85 0 59 0;
#X connect 86 0 84 0;
#X connect 87 0 20 0;
#X connect 88 0 89 0;
#X restore -197 -106 pd inputOutput;
#X obj 349 138 cnv 15 1150 300 empty empty empty 20 12 0 14 -233017
-66577 0;
#X obj 379 192 r speed;
#X obj 439 192 r stop;
#X obj 379 214 tgl 15 0 empty empty empty 17 7 0 10 -262144 -1 -1 0
1;
#X obj 439 214 tgl 15 0 empty empty empty 17 7 0 10 -262144 -1 -1 0
1;
#X obj 370 375 s position;
#X obj 642 192 r speed;
#X obj 702 192 r stop;
#X floatatom 380 304 5 0 0 0 - - -;
#X floatatom 643 304 5 0 0 0 - - -;
#X floatatom 923 304 5 0 0 0 - - -;
#X floatatom 1193 304 5 0 0 0 - - -;
#X obj 370 285 spigot 0;
#X obj 633 285 spigot 0;
#X obj 913 285 spigot 0;
#X obj 1183 285 spigot 0;
#X obj 922 192 r speed;
#X obj 982 192 r stop;
#X obj 1192 192 r speed;
#X obj 1252 192 r stop;
#X floatatom 379 256 5 0 0 0 - - -;
#X floatatom 642 256 5 0 0 0 - - -;
#X floatatom 922 256 5 0 0 0 - - -;
#X floatatom 1192 256 5 0 0 0 - - -;
#X obj 379 234 expr if($f1 == 0 && $f2 == 0 \, 1 \, 0);
#X obj 642 234 expr if($f1 == 1 && $f2 == 0 \, 1 \, 0);
#N canvas 0 51 450 300 set0ifRepetition 0;
#X obj 77 57 inlet;
#X obj 77 118 expr if($f1==$f2 \, 0 \, $f1);
#X obj 77 79 t f f;
#X obj 77 140 outlet;
#X connect 0 0 2 0;
#X connect 1 0 3 0;
#X connect 2 0 1 1;
#X connect 2 1 1 0;
#X restore 330 669 pd set0ifRepetition;
#X obj 260 631 spigot 1;
#X obj 330 631 spigot 0;
#X msg 530 582 1;
#X msg 530 602 0;
#X msg 582 582 0;
#X msg 582 602 1;
#X obj 498 530 sel 0;
#X floatatom 270 653 5 0 0 0 - - -;
#X floatatom 340 653 5 0 0 0 - - -;
#X obj 260 601 f;
#X obj 498 560 t b b;
#X obj 550 560 t b b;
#X obj 498 472 r speed;
#X obj 558 472 r stop;
#X obj 498 494 expr if(($f1 == 0 && $f2 == 1) || ($f1 == 1 && $f2 ==
1) \, 1 \, 0);
#X msg -25 239 1;
#X obj -25 214 r startSound;
#X obj 172 100 r selectNewFile;
#X obj 161 -230 cnv 15 280 280 empty empty empty 20 12 0 14 -233017
-66577 0;
#X obj 228 6 bng 15 250 50 0 empty empty empty 17 7 0 10 -262144 -1
-1;
#X obj 260 -76 bng 15 250 50 0 empty empty empty 17 7 0 10 -262144
-1 -1;
#X obj 196 -226 r joystickPointingTo;
#X obj 196 -204 sel 0;
#X obj 228 -100 t b b;
#X obj 228 26 s selectNewFile;
#X obj 270 -56 s stopSound;
#X obj 228 -182 t b b;
#X obj 298 -146 spigot 1;
#X obj 308 -124 s startSound;
#X obj 270 -16 s isPlaying;
#X msg 260 -36 0;
#X msg 298 -104 1;
#X obj 298 -82 s isPlaying;
#X obj 351 -195 r isPlaying;
#X obj 351 -173 == 0;
#X obj 1183 162 ./joystickPositionAB 160000 400;
#X obj 913 162 ./joystickPositionB 160000 400;
#X obj 633 162 ./joystickPositionA 160000 400;
#X obj 370 162 ./joystickPosition 160000 400;
#X obj -206 532 list prepend read -maxsize 160000 -skip 32768 -raw
128 2 2 b;
#X obj 5 -134 s selectFirstFile;
#X obj 169 -144 r selectFirstFile;
#X obj -206 662 s gpio4;
#X obj 228 -122 del 10000;
#X obj 922 234 expr if($f1 == 1 && $f2 == 1 \, 1 \, 0);
#X obj 1192 234 expr if($f1 == 0 && $f2 == 1 \, 1 \, 0);
#X obj -197 -179 t b b;
#X obj -197 -201 del 10000;
#X obj -95 -201 del 10000;
#X obj -165 -158 del 200;
#X obj -206 620 t b;
#X msg -206 642 1;
#X obj -5 -201 del 10500;
#X obj 260 720 spigot 0;
#X obj 313 695 r isPlaying;
#X obj 260 6 s ledTurnOff;
#X obj 323 735 r ledTurnOff;
#X connect 2 0 5 0;
#X connect 3 0 5 1;
#X connect 5 0 4 0;
#X connect 5 1 4 1;
#X connect 6 0 2 0;
#X connect 6 1 3 0;
#X connect 8 0 6 0;
#X connect 11 0 126 0;
#X connect 12 0 127 0;
#X connect 14 0 131 0;
#X connect 15 0 16 0;
#X connect 18 0 19 0;
#X connect 21 0 22 0;
#X connect 23 0 50 0;
#X connect 24 0 25 0;
#X connect 24 0 88 1;
#X connect 26 0 8 0;
#X connect 27 0 28 0;
#X connect 28 0 6 0;
#X connect 30 0 34 0;
#X connect 31 0 32 0;
#X connect 31 0 38 0;
#X connect 31 0 39 0;
#X connect 32 0 33 0;
#X connect 34 0 35 0;
#X connect 34 0 37 0;
#X connect 35 0 34 1;
#X connect 37 0 31 0;
#X connect 37 0 36 0;
#X connect 41 0 118 0;
#X connect 42 0 44 0;
#X connect 44 0 43 0;
#X connect 44 0 129 0;
#X connect 45 0 42 0;
#X connect 46 0 47 0;
#X connect 48 0 49 0;
#X connect 50 0 24 0;
#X connect 53 0 55 0;
#X connect 54 0 56 0;
#X connect 55 0 76 0;
#X connect 56 0 76 1;
#X connect 58 0 77 0;
#X connect 59 0 77 1;
#X connect 64 0 57 0;
#X connect 64 0 60 0;
#X connect 65 0 57 0;
#X connect 65 0 61 0;
#X connect 66 0 62 0;
#X connect 66 0 57 0;
#X connect 67 0 63 0;
#X connect 67 0 57 0;
#X connect 68 0 123 0;
#X connect 69 0 123 1;
#X connect 70 0 124 0;
#X connect 71 0 124 1;
#X connect 76 0 64 1;
#X connect 76 0 72 0;
#X connect 77 0 65 1;
#X connect 77 0 73 0;
#X connect 78 0 132 0;
#X connect 79 0 86 0;
#X connect 79 0 132 0;
#X connect 80 0 78 0;
#X connect 80 0 87 0;
#X connect 81 0 79 1;
#X connect 82 0 80 1;
#X connect 83 0 79 1;
#X connect 83 0 84 0;
#X connect 84 0 80 1;
#X connect 85 0 89 0;
#X connect 85 1 90 0;
#X connect 88 0 80 0;
#X connect 88 0 79 0;
#X connect 89 0 88 0;
#X connect 89 1 81 0;
#X connect 89 1 82 0;
#X connect 90 0 88 0;
#X connect 90 1 83 0;
#X connect 90 1 84 0;
#X connect 91 0 93 0;
#X connect 92 0 93 1;
#X connect 93 0 85 0;
#X connect 94 0 6 0;
#X connect 95 0 94 0;
#X connect 96 0 30 0;
#X connect 98 0 103 0;
#X connect 99 0 104 0;
#X connect 99 0 109 0;
#X connect 100 0 101 0;
#X connect 101 1 105 0;
#X connect 102 0 98 0;
#X connect 102 1 99 0;
#X connect 105 0 122 0;
#X connect 105 1 106 0;
#X connect 106 0 107 0;
#X connect 106 0 110 0;
#X connect 109 0 108 0;
#X connect 109 0 134 0;
#X connect 110 0 111 0;
#X connect 112 0 113 0;
#X connect 113 0 106 1;
#X connect 114 0 67 0;
#X connect 115 0 66 0;
#X connect 116 0 65 0;
#X connect 117 0 64 0;
#X connect 118 0 45 0;
#X connect 120 0 102 0;
#X connect 122 0 102 0;
#X connect 123 0 66 1;
#X connect 123 0 74 0;
#X connect 124 0 67 1;
#X connect 124 0 75 0;
#X connect 125 0 10 0;
#X connect 125 1 128 0;
#X connect 126 0 125 0;
#X connect 127 0 13 0;
#X connect 128 0 10 0;
#X connect 129 0 130 0;
#X connect 130 0 121 0;
#X connect 131 0 15 0;
#X connect 131 0 21 0;
#X connect 131 0 119 0;
#X connect 132 0 18 0;
#X connect 133 0 132 1;
#X connect 135 0 18 0;
