#N canvas 227 51 1202 812 10;
#X obj -158 176 cnv 15 300 350 empty empty FILES_TO_SOUND 20 12 0 14
-233017 -66577 0;
#N canvas 622 146 450 300 waitBeforeNewOne 0;
#X obj 58 33 inlet;
#X msg 81 129 0 0 0 0 0 0 0 0 0;
#X obj 58 249 outlet;
#X obj 308 33 inlet;
#X obj 58 55 t b b b;
#X msg 104 79 0;
#X obj 104 101 s metroOnOff;
#X obj 68 177 delay 6000;
#X connect 0 0 4 0;
#X connect 4 0 2 0;
#X connect 4 1 1 0;
#X connect 4 2 5 0;
#X connect 5 0 6 0;
#X restore -25 386 pd waitBeforeNewOne;
#X obj -85 417 *~ 1;
#X obj -55 437 *~ 1;
#X obj -85 499 dac~;
#N canvas 0 51 450 300 outHip 0;
#X obj 57 33 inlet~;
#X obj 57 55 hip~ 20;
#X obj 57 77 hip~ 20;
#X obj 57 99 outlet~;
#X obj 137 33 inlet~;
#X obj 137 55 hip~ 20;
#X obj 137 77 hip~ 20;
#X obj 137 99 outlet~;
#X connect 0 0 1 0;
#X connect 1 0 2 0;
#X connect 2 0 3 0;
#X connect 4 0 5 0;
#X connect 5 0 6 0;
#X connect 6 0 7 0;
#X restore -85 474 pd outHip;
#X obj -105 223 bng 15 250 50 0 empty empty empty 17 7 0 10 -262144
-1 -1;
#X obj -85 366 readsf~ 2;
#N canvas 725 51 450 300 files 0;
#X obj 53 38 inlet;
#X obj 53 246 outlet;
#X obj 53 60 sel 0 1 2 3 4 5 6;
#X msg 53 89 open ../tif/mamie2.tif 0 1 2 2 b \, 1;
#X msg 152 216 open ../tif/mamie3.tif 0 1 2 2 b \, 1;
#X msg 119 255 open ../tif/arina_02.tif 0 1 2 2 b \, 1;
#X msg 86 133 open ../tif/ardenne-1p.tif 0 1 2 2 b \, 1;
#X msg 119 175 open ../tif/1_dim100i.tif 0 1 2 2 b \, 1;
#X msg 119 280 open ../tif/arina2_02.tif 0 1 2 2 b \, 1;
#X msg 69 110 open ../tif/rockEnSeine.tif 0 1 2 2 b \, 1;
#X msg 102 154 open ../tif/arina2_02.tif 0 1 2 2 b \, 1;
#X msg 135 196 open ../tif/arina_02.tif 0 1 2 2 b \, 1;
#X connect 0 0 2 0;
#X connect 2 0 6 0;
#X connect 2 1 9 0;
#X connect 2 2 3 0;
#X connect 2 3 10 0;
#X connect 2 4 7 0;
#X connect 2 5 11 0;
#X connect 2 6 4 0;
#X connect 3 0 1 0;
#X connect 4 0 1 0;
#X connect 6 0 1 0;
#X connect 7 0 1 0;
#X connect 9 0 1 0;
#X connect 10 0 1 0;
#X connect 11 0 1 0;
#X restore -85 294 pd files;
#X msg -75 316 1;
#X obj -75 338 s metroOnOff;
#X obj -25 409 s selectNewFile;
#X obj -85 245 f 0;
#X obj -55 245 + 1;
#N canvas 242 118 450 300 proposalSound 0;
#X msg 84 100 open ../sounds/proposal\$1.wav \, 1;
#X obj 84 122 readsf~ 2;
#N canvas 0 51 450 300 outHip 0;
#X obj 57 33 inlet~;
#X obj 57 55 hip~ 20;
#X obj 57 77 hip~ 20;
#X obj 57 99 outlet~;
#X obj 137 33 inlet~;
#X obj 137 55 hip~ 20;
#X obj 137 77 hip~ 20;
#X obj 137 99 outlet~;
#X connect 0 0 1 0;
#X connect 1 0 2 0;
#X connect 2 0 3 0;
#X connect 4 0 5 0;
#X connect 5 0 6 0;
#X connect 6 0 7 0;
#X restore 84 204 pd outHip;
#X obj 84 226 dac~;
#X obj 174 226 outlet;
#X obj 174 202 f;
#X obj 174 182 delay 1000;
#X obj 84 145 *~ 0.8;
#X obj 115 164 *~ 0.8;
#X obj 84 27 sel 0 6;
#X connect 0 0 1 0;
#X connect 1 0 7 0;
#X connect 1 1 8 0;
#X connect 1 2 6 0;
#X connect 2 0 3 0;
#X connect 2 1 3 1;
#X connect 5 0 4 0;
#X connect 6 0 5 0;
#X connect 7 0 2 0;
#X connect 8 0 2 1;
#X connect 9 2 0 0;
#X restore 15 261 pd proposalSound;
#X msg -145 338 stop;
#X obj -145 313 r stop;
#X obj -105 200 r start;
#X obj -85 223 r selectNewFile;
#X floatatom -55 270 5 0 0 0 - - -;
#X obj -85 267 % 7;
#X obj 35 223 r reset;
#X obj -158 -27 cnv 15 330 170 empty empty empty 20 12 0 14 -233017
-66577 0;
#N canvas 595 109 642 537 gpioSetup 0;
#X obj 53 -27 inlet;
#X obj 53 85 gpio/setGpioOut 4;
#X obj 63 135 gpio/setGpioOut 17;
#X obj 73 185 gpio/setGpioOut 27;
#X obj 193 85 gpio/setGpioOut 22;
#X obj 203 135 gpio/setGpioOut 10;
#X obj 213 185 gpio/setGpioOut 9;
#X obj 333 85 gpio/setGpioOut 11;
#X obj 343 136 gpio/setGpioOut 8;
#X obj 353 185 gpio/setGpioOut 7;
#X obj 83 235 gpio/setGpioIn 14;
#X obj 93 285 gpio/setGpioIn 23;
#X obj 223 235 gpio/setGpioIn 15;
#X obj 363 235 gpio/setGpioIn 18;
#X obj 373 286 gpio/setGpioIn 25;
#X obj 233 285 gpio/setGpioIn 24;
#X connect 0 0 1 0;
#X connect 0 0 4 0;
#X connect 0 0 7 0;
#X connect 0 0 2 0;
#X connect 0 0 5 0;
#X connect 0 0 8 0;
#X connect 0 0 3 0;
#X connect 0 0 6 0;
#X connect 0 0 9 0;
#X connect 0 0 10 0;
#X connect 0 0 11 0;
#X connect 0 0 12 0;
#X connect 0 0 13 0;
#X connect 0 0 14 0;
#X connect 0 0 15 0;
#X restore -137 45 pd gpioSetup;
#X obj -137 -20 loadbang;
#X obj -137 2 del 100;
#X obj -128 25 bng 15 250 50 0 empty empty empty 17 7 0 10 -262144
-1 -1;
#X obj -35 -20 loadbang;
#X obj -35 2 del 100;
#X msg -35 24 \; pd dsp 1 \;;
#X obj 55 -20 loadbang;
#X obj 55 2 del 200;
#X obj 65 66 s gpio4;
#X msg 65 24 1;
#X obj 75 44 s startInput;
#X obj 162 301 cnv 15 300 200 empty empty empty 20 12 0 14 -233017
-66577 0;
#N canvas 571 51 515 411 to8BitsOutput 0;
#X obj 77 183 int;
#X obj 77 141 % 256;
#X obj 77 161 / 128;
#X obj 117 183 int;
#X obj 117 141 % 128;
#X obj 117 161 / 64;
#X obj 157 183 int;
#X obj 197 183 int;
#X obj 157 141 % 64;
#X obj 157 161 / 32;
#X obj 197 141 % 32;
#X obj 197 161 / 16;
#X obj 237 183 int;
#X obj 277 183 int;
#X obj 307 183 int;
#X obj 237 141 % 16;
#X obj 237 161 / 8;
#X obj 277 141 % 8;
#X obj 277 161 / 4;
#X obj 307 141 % 4;
#X obj 307 161 / 2;
#X obj 337 183 int;
#X obj 337 141 % 2;
#X obj 337 161 / 1;
#X obj 137 279 outlet;
#X obj 77 279 outlet;
#X obj 77 22 inlet;
#X obj 77 257 pack f f f f f f f f;
#X obj 77 44 t f f;
#X connect 0 0 27 0;
#X connect 1 0 2 0;
#X connect 2 0 0 0;
#X connect 3 0 27 1;
#X connect 4 0 5 0;
#X connect 5 0 3 0;
#X connect 6 0 27 2;
#X connect 7 0 27 3;
#X connect 8 0 9 0;
#X connect 9 0 6 0;
#X connect 10 0 11 0;
#X connect 11 0 7 0;
#X connect 12 0 27 4;
#X connect 13 0 27 5;
#X connect 14 0 27 6;
#X connect 15 0 16 0;
#X connect 16 0 12 0;
#X connect 17 0 18 0;
#X connect 18 0 13 0;
#X connect 19 0 20 0;
#X connect 20 0 14 0;
#X connect 21 0 27 7;
#X connect 22 0 23 0;
#X connect 23 0 21 0;
#X connect 26 0 28 0;
#X connect 27 0 25 0;
#X connect 28 0 1 0;
#X connect 28 1 4 0;
#X connect 28 1 8 0;
#X connect 28 1 10 0;
#X connect 28 1 15 0;
#X connect 28 1 17 0;
#X connect 28 1 19 0;
#X connect 28 1 22 0;
#X restore 180 445 pd to8BitsOutput;
#X obj 180 467 gpio/sendToGpio 7 8 17 11 9 10 22 27;
#N canvas 0 51 450 300 set0ifRepetition 0;
#X obj 77 57 inlet;
#X obj 77 118 expr if($f1==$f2 \, 0 \, $f1);
#X obj 77 79 t f f;
#X obj 77 140 outlet;
#X connect 0 0 2 0;
#X connect 1 0 3 0;
#X connect 2 0 1 1;
#X connect 2 1 1 0;
#X restore 176 509 pd set0ifRepetition;
#N canvas 0 0 450 300 (subpatch) 0;
#X array file 40000 float 2;
#X coords 0 1 40000 -1 600 140 1 0 0;
#X restore 457 -38 graph;
#X floatatom 194 584 8 0 0 0 - - -;
#X obj 194 562 soundfiler;
#X msg 194 540 read -maxsize 40000 -raw 128 2 2 b ../tif/mamie2.tif
file;
#X obj 160 182 ./joystickPosition 40000 200;
#X floatatom 170 204 5 0 0 0 - - -;
#X msg 55 94 0;
#X obj 55 116 s position;
#X obj 160 224 s joystickPosition;
#N canvas 195 196 879 572 inoutOutput 1;
#X obj 40 55 cnv 15 350 130 empty empty empty 20 12 0 14 -233017 -66577
0;
#N canvas 699 500 450 300 gpioOutput 0;
#X obj 88 58 r gpio4;
#X obj 88 80 gpio 4;
#X obj 158 58 r gpio17;
#X obj 230 58 r gpio27;
#X obj 88 108 r gpio22;
#X obj 158 108 r gpio10;
#X obj 230 108 r gpio9;
#X obj 88 158 r gpio11;
#X obj 158 158 r gpio7;
#X obj 230 158 r gpio8;
#X obj 158 80 gpio 17;
#X obj 230 80 gpio 27;
#X obj 88 130 gpio 22;
#X obj 158 130 gpio 10;
#X obj 230 130 gpio 9;
#X obj 88 180 gpio 11;
#X obj 158 180 gpio 7;
#X obj 230 180 gpio 8;
#X connect 0 0 1 0;
#X connect 2 0 10 0;
#X connect 3 0 11 0;
#X connect 4 0 12 0;
#X connect 5 0 13 0;
#X connect 6 0 14 0;
#X connect 7 0 15 0;
#X connect 8 0 16 0;
#X connect 9 0 17 0;
#X restore 58 91 pd gpioOutput;
#X obj 58 120 tgl 15 0 empty empty empty 17 7 0 10 -262144 -1 -1 0
1;
#X obj 98 120 tgl 15 0 empty empty empty 17 7 0 10 -262144 -1 -1 0
1;
#X obj 140 120 tgl 15 0 empty empty empty 17 7 0 10 -262144 -1 -1 0
1;
#X obj 178 120 tgl 15 0 empty empty empty 17 7 0 10 -262144 -1 -1 0
1;
#X obj 218 120 tgl 15 0 empty empty empty 17 7 0 10 -262144 -1 -1 0
1;
#X obj 260 120 tgl 15 0 empty empty empty 17 7 0 10 -262144 -1 -1 0
1;
#X obj 298 120 tgl 15 0 empty empty empty 17 7 0 10 -262144 -1 -1 0
1;
#X obj 338 120 tgl 15 0 empty empty empty 17 7 0 10 -262144 -1 -1 0
1;
#N canvas 70 545 450 300 gpioOutputTable 0;
#X obj 158 80 s gpio17;
#X obj 230 80 s gpio27;
#X obj 88 130 s gpio22;
#X obj 158 130 s gpio10;
#X obj 230 130 s gpio9;
#X obj 88 180 s gpio11;
#X obj 158 180 s gpio7;
#X obj 230 180 s gpio8;
#X obj 88 58 r;
#X obj 88 80 s gpio4;
#X obj 158 58 r l3;
#X obj 230 58 r l8;
#X obj 88 108 r l7;
#X obj 158 108 r l6;
#X obj 230 108 r l5;
#X obj 88 158 r l4;
#X obj 158 158 r l1;
#X obj 230 158 r l2;
#X connect 10 0 0 0;
#X connect 11 0 1 0;
#X connect 12 0 2 0;
#X connect 13 0 3 0;
#X connect 14 0 4 0;
#X connect 15 0 5 0;
#X connect 16 0 6 0;
#X connect 17 0 7 0;
#X restore 58 71 pd gpioOutputTable;
#X obj 58 140 s l1;
#X obj 98 140 s l2;
#X obj 140 140 s l3;
#X obj 178 140 s l4;
#X obj 218 140 s l5;
#X obj 260 140 s l6;
#X obj 298 140 s l7;
#X obj 338 140 s l8;
#X obj 397 55 cnv 15 200 320 empty empty empty 20 12 0 14 -233017 -66577
0;
#N canvas 679 441 630 404 gpioInput 0;
#X obj 71 51 inlet;
#X obj -49 153 gpio 14;
#X obj -49 175 outlet;
#X obj 11 175 outlet;
#X obj 71 175 outlet;
#X obj 131 175 outlet;
#X obj 191 175 outlet;
#X obj 252 175 outlet;
#X obj 11 153 gpio 15;
#X obj 71 153 gpio 18;
#X obj 131 153 gpio 23;
#X obj 191 153 gpio 24;
#X obj 252 153 gpio 25;
#X obj -59 93 r gpio14;
#X obj 1 113 r gpio15;
#X obj 61 93 r gpio18;
#X obj 121 113 r gpio23;
#X obj 181 93 r gpio24;
#X obj 242 113 r gpio25;
#X connect 0 0 1 0;
#X connect 0 0 8 0;
#X connect 0 0 9 0;
#X connect 0 0 10 0;
#X connect 0 0 11 0;
#X connect 0 0 12 0;
#X connect 1 0 2 0;
#X connect 8 0 3 0;
#X connect 9 0 4 0;
#X connect 10 0 5 0;
#X connect 11 0 6 0;
#X connect 12 0 7 0;
#X connect 13 0 1 0;
#X connect 14 0 8 0;
#X connect 15 0 9 0;
#X connect 16 0 10 0;
#X connect 17 0 11 0;
#X connect 18 0 12 0;
#X restore 420 111 pd gpioInput;
#X obj 420 133 tgl 15 0 empty empty empty 17 7 0 10 -262144 -1 -1 0
1;
#X obj 436 153 tgl 15 0 empty empty empty 17 7 0 10 -262144 -1 -1 0
1;
#X obj 452 133 tgl 15 0 empty empty empty 17 7 0 10 -262144 -1 -1 1
1;
#X obj 468 153 tgl 15 0 empty empty empty 17 7 0 10 -262144 -1 -1 0
1;
#X obj 484 133 tgl 15 0 empty empty empty 17 7 0 10 -262144 -1 -1 0
1;
#X obj 501 153 tgl 15 0 empty empty empty 17 7 0 10 -262144 -1 -1 0
1;
#X obj 436 193 s speed;
#X obj 420 173 s stop;
#X obj 420 90 metro 25;
#X obj 452 213 s iD;
#X obj 468 233 s iG;
#X obj 484 253 s iH;
#X obj 501 273 s iB;
#N canvas 45 117 1008 324 joystickDirection 0;
#X obj 528 132 &;
#X obj 568 132 &;
#X obj 608 132 &;
#X obj 648 132 &;
#X obj 528 214 outlet;
#X obj 568 234 outlet;
#X obj 608 214 outlet;
#X obj 648 234 outlet;
#X obj -142 -5 r iH;
#X obj -92 -5 r iB;
#X obj -42 -5 r iD;
#X obj 8 -5 r iG;
#X obj -142 239 outlet;
#X obj -92 259 outlet;
#X obj -42 239 outlet;
#X obj 8 259 outlet;
#X floatatom 648 154 5 0 0 0 - - -;
#X floatatom 608 154 5 0 0 0 - - -;
#X floatatom 568 154 5 0 0 0 - - -;
#X floatatom 528 154 5 0 0 0 - - -;
#X floatatom 57 196 5 0 0 0 - - -;
#X obj -142 217 *;
#X obj -92 237 *;
#X obj -42 217 *;
#X obj 8 237 *;
#X obj 57 174 expr if($f1 == 1 || $f2 == 1 || $f3 == 1 || $f4 == 1
\, 0 \, 1);
#X connect 0 0 4 0;
#X connect 0 0 19 0;
#X connect 0 0 25 0;
#X connect 1 0 5 0;
#X connect 1 0 18 0;
#X connect 1 0 25 1;
#X connect 2 0 6 0;
#X connect 2 0 17 0;
#X connect 2 0 25 2;
#X connect 3 0 7 0;
#X connect 3 0 16 0;
#X connect 3 0 25 3;
#X connect 8 0 0 0;
#X connect 8 0 2 0;
#X connect 8 0 21 0;
#X connect 9 0 1 0;
#X connect 9 0 3 0;
#X connect 9 0 22 0;
#X connect 10 0 0 1;
#X connect 10 0 1 1;
#X connect 10 0 23 0;
#X connect 11 0 2 1;
#X connect 11 0 3 1;
#X connect 11 0 24 0;
#X connect 21 0 12 0;
#X connect 22 0 13 0;
#X connect 23 0 14 0;
#X connect 24 0 15 0;
#X connect 25 0 20 0;
#X connect 25 0 21 1;
#X connect 25 0 22 1;
#X connect 25 0 23 1;
#X connect 25 0 24 1;
#X restore 420 304 pd joystickDirection;
#X obj 420 68 r startInput;
#X obj 40 193 cnv 15 350 250 empty empty empty 20 12 0 14 -233017 -66577
0;
#X obj 61 220 r l1;
#X obj 61 241 tgl 15 0 empty empty empty 17 7 0 10 -262144 -1 -1 0
1;
#X obj 101 241 tgl 15 0 empty empty empty 17 7 0 10 -262144 -1 -1 0
1;
#X obj 143 241 tgl 15 0 empty empty empty 17 7 0 10 -262144 -1 -1 0
1;
#X obj 181 241 tgl 15 0 empty empty empty 17 7 0 10 -262144 -1 -1 0
1;
#X obj 221 241 tgl 15 0 empty empty empty 17 7 0 10 -262144 -1 -1 0
1;
#X obj 263 241 tgl 15 0 empty empty empty 17 7 0 10 -262144 -1 -1 0
1;
#X obj 301 241 tgl 15 0 empty empty empty 17 7 0 10 -262144 -1 -1 0
1;
#X obj 341 241 tgl 15 0 empty empty empty 17 7 0 10 -262144 -1 -1 0
1;
#X obj 101 220 r l2;
#X obj 143 220 r l3;
#X obj 181 220 r l4;
#X obj 221 220 r l5;
#X obj 263 220 r l6;
#X obj 301 220 r l7;
#X obj 341 220 r l8;
#X obj 211 331 tgl 15 0 empty empty empty 17 7 0 10 -262144 -1 -1 0
1;
#X obj 211 411 tgl 15 0 empty empty empty 17 7 0 10 -262144 -1 -1 0
1;
#X obj 171 371 tgl 15 0 empty empty empty 17 7 0 10 -262144 -1 -1 0
1;
#X obj 249 371 tgl 15 0 empty empty empty 17 7 0 10 -262144 -1 -1 0
1;
#X obj 171 331 tgl 15 0 empty empty empty 17 7 0 10 -262144 -1 -1 0
1;
#X obj 250 331 tgl 15 0 empty empty empty 17 7 0 10 -262144 -1 -1 0
1;
#X obj 171 411 tgl 15 0 empty empty empty 17 7 0 10 -262144 -1 -1 0
1;
#X obj 249 411 tgl 15 0 empty empty empty 17 7 0 10 -262144 -1 -1 0
1;
#X obj 211 310 r H;
#X obj 211 390 r B;
#X obj 171 350 r G;
#X obj 249 350 r D;
#X obj 171 310 r HG;
#X obj 250 310 r HD;
#X obj 171 390 r BG;
#X obj 249 390 r BD;
#X obj 61 331 tgl 15 0 empty empty empty 17 7 0 10 -262144 -1 -1 0
1;
#X obj 110 331 tgl 15 0 empty empty empty 17 7 0 10 -262144 -1 -1 0
1;
#X obj 61 310 r stop;
#X obj 110 310 r speed;
#X obj 420 326 sel 1;
#X msg 420 348 1;
#X obj 439 372 sel 1;
#X msg 439 394 2;
#X obj 459 416 sel 1;
#X obj 478 462 sel 1;
#X obj 498 326 sel 1;
#X obj 517 372 sel 1;
#X obj 537 416 sel 1;
#X obj 557 462 sel 1;
#X msg 459 438 4;
#X msg 478 484 3;
#X msg 498 348 5;
#X msg 537 439 6;
#X msg 517 394 7;
#X msg 557 484 8;
#X obj 420 510 t f;
#X floatatom 421 532 5 0 0 0 - - -;
#X connect 2 0 11 0;
#X connect 3 0 12 0;
#X connect 4 0 13 0;
#X connect 5 0 14 0;
#X connect 6 0 15 0;
#X connect 7 0 16 0;
#X connect 8 0 17 0;
#X connect 9 0 18 0;
#X connect 20 0 21 0;
#X connect 20 1 22 0;
#X connect 20 2 23 0;
#X connect 20 3 24 0;
#X connect 20 4 25 0;
#X connect 20 5 26 0;
#X connect 21 0 28 0;
#X connect 22 0 27 0;
#X connect 23 0 30 0;
#X connect 24 0 31 0;
#X connect 25 0 32 0;
#X connect 26 0 33 0;
#X connect 29 0 20 0;
#X connect 34 0 73 0;
#X connect 34 1 75 0;
#X connect 34 2 77 0;
#X connect 34 3 78 0;
#X connect 34 4 79 0;
#X connect 34 5 80 0;
#X connect 34 6 81 0;
#X connect 34 7 82 0;
#X connect 35 0 29 0;
#X connect 37 0 38 0;
#X connect 46 0 39 0;
#X connect 47 0 40 0;
#X connect 48 0 41 0;
#X connect 49 0 42 0;
#X connect 50 0 43 0;
#X connect 51 0 44 0;
#X connect 52 0 45 0;
#X connect 61 0 53 0;
#X connect 62 0 54 0;
#X connect 63 0 55 0;
#X connect 64 0 56 0;
#X connect 65 0 57 0;
#X connect 66 0 58 0;
#X connect 67 0 59 0;
#X connect 68 0 60 0;
#X connect 71 0 69 0;
#X connect 72 0 70 0;
#X connect 73 0 74 0;
#X connect 74 0 89 0;
#X connect 75 0 76 0;
#X connect 76 0 89 0;
#X connect 77 0 83 0;
#X connect 78 0 84 0;
#X connect 79 0 85 0;
#X connect 80 0 87 0;
#X connect 81 0 86 0;
#X connect 82 0 88 0;
#X connect 83 0 89 0;
#X connect 84 0 89 0;
#X connect 85 0 89 0;
#X connect 86 0 89 0;
#X connect 87 0 89 0;
#X connect 88 0 89 0;
#X connect 89 0 90 0;
#X restore -141 97 pd inoutOutput;
#X obj 850 310 tgl 15 0 empty empty empty 17 7 0 10 -262144 -1 -1 0
1;
#X obj 850 330 metro 20;
#X obj 850 392 snapshot~;
#X obj 923 345 +~;
#X obj 923 367 /~ 2;
#X obj 180 355 tabread file;
#X obj 180 333 r position;
#X floatatom 180 377 5 0 0 0 - - -;
#N canvas 0 22 450 300 mapTo8BitsNumber 0;
#X obj 67 37 inlet;
#X obj 67 59 + 1;
#X obj 67 125 int;
#X obj 67 147 outlet;
#X obj 67 81 / 2;
#X obj 67 103 * 255;
#X connect 0 0 1 0;
#X connect 1 0 4 0;
#X connect 2 0 3 0;
#X connect 4 0 5 0;
#X connect 5 0 2 0;
#X restore 180 394 pd mapTo8BitsNumber;
#X floatatom 190 416 5 0 0 0 - - -;
#X obj 604 263 r joystickPosition;
#X obj 600 332 r speed;
#X obj 660 332 r stop;
#X obj 600 354 tgl 15 0 empty empty empty 17 7 0 10 -262144 -1 -1 0
1;
#X obj 660 354 tgl 15 0 empty empty empty 17 7 0 10 -262144 -1 -1 0
1;
#X obj 600 374 == 0;
#X obj 660 374 == 0;
#X obj 504 475 s position;
#X obj 504 403 r joystickPosition;
#X obj 504 445 spigot;
#X obj 745 528 line;
#X obj 695 438 f;
#X msg 695 460 \$1 500;
#X obj 695 482 del 500;
#X floatatom 647 579 5 0 0 0 - - -;
#X obj 647 598 pow -1;
#X floatatom 647 620 5 0 0 0 - - -;
#X msg 745 416 0.2 10000;
#X floatatom 745 550 5 0 0 0 - - -;
#X msg 765 499 1000 300;
#X obj 745 390 change;
#X obj 723 605 ./joystickPositionA 40000 200;
#X obj 225 617 bng 15 250 50 0 empty empty empty 17 7 0 10 -262144
-1 -1;
#X connect 1 0 11 0;
#X connect 2 0 5 0;
#X connect 3 0 5 1;
#X connect 5 0 4 0;
#X connect 5 1 4 1;
#X connect 6 0 12 0;
#X connect 7 0 2 0;
#X connect 7 1 3 0;
#X connect 7 2 1 0;
#X connect 8 0 7 0;
#X connect 8 0 9 0;
#X connect 9 0 10 0;
#X connect 12 0 13 0;
#X connect 12 0 20 0;
#X connect 13 0 12 1;
#X connect 15 0 7 0;
#X connect 16 0 15 0;
#X connect 17 0 6 0;
#X connect 18 0 12 0;
#X connect 20 0 8 0;
#X connect 20 0 19 0;
#X connect 21 0 12 1;
#X connect 24 0 25 0;
#X connect 25 0 23 0;
#X connect 26 0 23 0;
#X connect 27 0 28 0;
#X connect 28 0 29 0;
#X connect 30 0 31 0;
#X connect 31 0 33 0;
#X connect 31 0 45 0;
#X connect 33 0 32 0;
#X connect 33 0 34 0;
#X connect 36 0 37 0;
#X connect 40 0 81 0;
#X connect 41 0 40 0;
#X connect 42 0 41 0;
#X connect 43 0 44 0;
#X connect 43 0 47 0;
#X connect 45 0 46 0;
#X connect 49 0 50 0;
#X connect 50 0 51 0;
#X connect 52 0 53 0;
#X connect 53 0 51 0;
#X connect 54 0 56 0;
#X connect 55 0 54 0;
#X connect 56 0 57 0;
#X connect 57 0 36 0;
#X connect 57 0 58 0;
#X connect 60 0 62 0;
#X connect 61 0 63 0;
#X connect 62 0 64 0;
#X connect 63 0 65 0;
#X connect 64 0 68 1;
#X connect 65 0 68 1;
#X connect 67 0 68 0;
#X connect 68 0 66 0;
#X connect 69 0 77 0;
#X connect 70 0 71 0;
#X connect 71 0 72 0;
#X connect 72 0 69 0;
#X connect 73 0 74 0;
#X connect 74 0 75 0;
#X connect 76 0 69 0;
#X connect 76 0 70 1;
#X connect 78 0 69 0;
#X connect 79 0 76 0;
