#N canvas 410 179 864 548 10;
#X obj 50 176 f;
#X obj 68 153 r position;
#X text 502 21 \$1 nombre de positions \; \$2 racine du nombre de positions
\;;
#X obj 170 176 f;
#X obj 188 153 r position;
#X obj 290 176 f;
#X obj 308 153 r position;
#X obj 290 198 - 1;
#X obj 400 176 f;
#X obj 418 153 r position;
#X obj 50 198 - \$2;
#X obj 170 198 + \$2;
#X obj 400 198 + 1;
#X obj 520 176 f;
#X obj 538 153 r position;
#X obj 640 176 f;
#X obj 658 153 r position;
#X obj 760 176 f;
#X obj 778 153 r position;
#X obj 870 176 f;
#X obj 888 153 r position;
#X obj 520 198 - \$2;
#X obj 760 220 - 1;
#X obj 870 220 + 1;
#X obj 640 198 - \$2;
#X obj 760 198 + \$2;
#X obj 870 198 + \$2;
#X obj 520 220 - 1;
#X obj 640 220 + 1;
#X obj 50 14 r joystickPointingTo;
#X floatatom 50 422 5 0 0 0 - - -;
#X obj 50 340 moses 0;
#X obj 50 362 + \$1;
#X obj 96 362 moses \$1;
#X obj 149 382 - \$1;
#X obj 50 481 outlet;
#X obj 50 318 spigot 1;
#X obj 140 441 t b;
#X msg 150 463 0;
#X msg 140 505 1;
#X obj 50 34 sel 1 2 3 4 5 6 7 8 0;
#X msg 178 77 1;
#X obj 178 57 del 60;
#X obj 140 483 del 100;
#X connect 0 0 10 0;
#X connect 1 0 0 1;
#X connect 3 0 11 0;
#X connect 4 0 3 1;
#X connect 5 0 7 0;
#X connect 6 0 5 1;
#X connect 7 0 36 0;
#X connect 8 0 12 0;
#X connect 9 0 8 1;
#X connect 10 0 36 0;
#X connect 11 0 36 0;
#X connect 12 0 36 0;
#X connect 13 0 21 0;
#X connect 14 0 13 1;
#X connect 15 0 24 0;
#X connect 16 0 15 1;
#X connect 17 0 25 0;
#X connect 18 0 17 1;
#X connect 19 0 26 0;
#X connect 20 0 19 1;
#X connect 21 0 27 0;
#X connect 22 0 36 0;
#X connect 23 0 36 0;
#X connect 24 0 28 0;
#X connect 25 0 22 0;
#X connect 26 0 23 0;
#X connect 27 0 36 0;
#X connect 28 0 36 0;
#X connect 29 0 40 0;
#X connect 30 0 35 0;
#X connect 30 0 37 0;
#X connect 31 0 32 0;
#X connect 31 1 33 0;
#X connect 32 0 30 0;
#X connect 33 0 30 0;
#X connect 33 1 34 0;
#X connect 34 0 30 0;
#X connect 36 0 31 0;
#X connect 37 0 38 0;
#X connect 37 0 43 0;
#X connect 38 0 36 1;
#X connect 39 0 36 1;
#X connect 40 0 0 0;
#X connect 40 1 3 0;
#X connect 40 2 5 0;
#X connect 40 3 8 0;
#X connect 40 4 13 0;
#X connect 40 5 15 0;
#X connect 40 6 17 0;
#X connect 40 7 19 0;
#X connect 40 8 42 0;
#X connect 41 0 36 1;
#X connect 42 0 41 0;
#X connect 43 0 39 0;
