#N canvas 81 51 988 659 10;
#X obj 50 176 f;
#X obj 68 153 r position;
#X text 502 21 \$1 nombre de positions \; \$2 racine du nombre de positions
\;;
#X floatatom 50 400 5 0 0 0 - - -;
#X obj 170 124 sel 1;
#X obj 170 176 f;
#X obj 188 153 r position;
#X obj 290 124 sel 1;
#X obj 290 176 f;
#X obj 308 153 r position;
#X obj 290 198 - 1;
#X obj 400 124 sel 1;
#X obj 400 176 f;
#X obj 418 153 r position;
#X obj 50 198 - \$2;
#X obj 50 318 moses 0;
#X obj 50 340 + \$1;
#X obj 30 126 bng 15 250 50 0 empty empty empty 17 7 0 10 -262144 -1
-1;
#X obj 150 126 bng 15 250 50 0 empty empty empty 17 7 0 10 -262144
-1 -1;
#X obj 270 126 bng 15 250 50 0 empty empty empty 17 7 0 10 -262144
-1 -1;
#X obj 380 126 bng 15 250 50 0 empty empty empty 17 7 0 10 -262144
-1 -1;
#X obj 170 198 + \$2;
#X obj 400 198 + 1;
#X obj 520 124 sel 1;
#X obj 520 176 f;
#X obj 538 153 r position;
#X obj 640 124 sel 1;
#X obj 640 176 f;
#X obj 658 153 r position;
#X obj 760 124 sel 1;
#X obj 760 176 f;
#X obj 778 153 r position;
#X obj 870 124 sel 1;
#X obj 870 176 f;
#X obj 888 153 r position;
#X obj 520 198 - \$2;
#X obj 500 126 bng 15 250 50 0 empty empty empty 17 7 0 10 -262144
-1 -1;
#X obj 620 126 bng 15 250 50 0 empty empty empty 17 7 0 10 -262144
-1 -1;
#X obj 740 126 bng 15 250 50 0 empty empty empty 17 7 0 10 -262144
-1 -1;
#X obj 850 126 bng 15 250 50 0 empty empty empty 17 7 0 10 -262144
-1 -1;
#X obj 760 220 - 1;
#X obj 870 220 + 1;
#X obj 640 198 - \$2;
#X obj 760 198 + \$2;
#X obj 870 198 + \$2;
#X obj 96 340 moses \$1;
#X obj 149 360 - \$1;
#X obj 520 220 - 1;
#X obj 640 220 + 1;
#X obj 50 459 outlet;
#X obj 50 512 r H;
#X obj 170 512 r B;
#X obj 290 512 r G;
#X obj 400 512 r D;
#X obj 520 512 r HG;
#X obj 640 512 r HD;
#X obj 760 512 r BG;
#X obj 870 512 r BD;
#X obj 50 34 sel 1 2 3 4 5 6 7 8;
#X obj 50 14 r joystick;
#X connect 0 0 14 0;
#X connect 1 0 0 1;
#X connect 3 0 49 0;
#X connect 4 0 5 0;
#X connect 5 0 21 0;
#X connect 6 0 5 1;
#X connect 7 0 8 0;
#X connect 8 0 10 0;
#X connect 9 0 8 1;
#X connect 10 0 15 0;
#X connect 11 0 12 0;
#X connect 12 0 22 0;
#X connect 13 0 12 1;
#X connect 14 0 15 0;
#X connect 15 0 16 0;
#X connect 15 1 45 0;
#X connect 16 0 3 0;
#X connect 17 0 0 0;
#X connect 18 0 5 0;
#X connect 19 0 8 0;
#X connect 20 0 12 0;
#X connect 21 0 15 0;
#X connect 22 0 15 0;
#X connect 23 0 24 0;
#X connect 24 0 35 0;
#X connect 25 0 24 1;
#X connect 26 0 27 0;
#X connect 27 0 42 0;
#X connect 28 0 27 1;
#X connect 29 0 30 0;
#X connect 30 0 43 0;
#X connect 31 0 30 1;
#X connect 32 0 33 0;
#X connect 33 0 44 0;
#X connect 34 0 33 1;
#X connect 35 0 47 0;
#X connect 36 0 24 0;
#X connect 37 0 27 0;
#X connect 38 0 30 0;
#X connect 39 0 33 0;
#X connect 40 0 15 0;
#X connect 41 0 15 0;
#X connect 42 0 48 0;
#X connect 43 0 40 0;
#X connect 44 0 41 0;
#X connect 45 0 3 0;
#X connect 45 1 46 0;
#X connect 46 0 3 0;
#X connect 47 0 15 0;
#X connect 48 0 15 0;
#X connect 58 0 0 0;
#X connect 58 1 4 0;
#X connect 58 2 7 0;
#X connect 58 3 11 0;
#X connect 58 4 23 0;
#X connect 58 5 26 0;
#X connect 58 6 29 0;
#X connect 58 7 32 0;
#X connect 58 8 0 0;
#X connect 59 0 58 0;
