#N canvas 217 470 1068 447 10;
#X obj 69 61 setGpioOut 10;
#X obj 69 174 r gpio10;
#X obj 213 9 bng 15 250 50 0 empty empty empty 17 7 0 10 -262144 -1
-1;
#X obj 149 174 r gpio9;
#X obj 229 174 r gpio11;
#X obj 69 224 r gpio17;
#X obj 149 224 r gpio27;
#X obj 229 224 r gpio22;
#X obj 125 196 tgl 15 0 empty empty empty 17 7 0 10 -262144 -1 -1 0
1;
#X obj 205 196 tgl 15 0 empty empty empty 17 7 0 10 -262144 -1 -1 0
1;
#X obj 285 196 tgl 15 0 empty empty empty 17 7 0 10 -262144 -1 -1 0
1;
#X obj 125 246 tgl 15 0 empty empty empty 17 7 0 10 -262144 -1 -1 0
1;
#X obj 205 246 tgl 15 0 empty empty empty 17 7 0 10 -262144 -1 -1 0
1;
#X obj 285 246 tgl 15 0 empty empty empty 17 7 0 10 -262144 -1 -1 0
1;
#X obj 179 61 setGpioOut 9;
#X obj 289 61 setGpioOut 11;
#X obj 69 101 setGpioOut 17;
#X obj 179 101 setGpioOut 27;
#X obj 289 101 setGpioOut 22;
#X obj 69 196 gpio 10;
#X obj 69 246 gpio 17;
#X obj 149 196 gpio 9;
#X obj 149 246 gpio 27;
#X obj 229 196 gpio 11;
#X obj 229 246 gpio 22;
#N canvas 622 51 710 348 matrix 1;
#X obj 29 -75 f 0;
#X obj 69 -75 + 1;
#X obj 29 -23 sel 0 1 2;
#N canvas 0 51 450 300 sel 0;
#X obj 74 63 inlet;
#X msg 74 85 1;
#X obj 74 107 outlet;
#X obj 124 107 outlet;
#X obj 174 107 outlet;
#X msg 124 85 0;
#X msg 174 85 0;
#X connect 0 0 1 0;
#X connect 0 0 5 0;
#X connect 0 0 6 0;
#X connect 1 0 2 0;
#X connect 5 0 3 0;
#X connect 6 0 4 0;
#X restore 29 188 pd sel;
#N canvas 0 51 450 300 sel 0;
#X obj 74 63 inlet;
#X msg 74 85 1;
#X obj 74 107 outlet;
#X obj 124 107 outlet;
#X obj 174 107 outlet;
#X msg 124 85 0;
#X msg 174 85 0;
#X connect 0 0 1 0;
#X connect 0 0 5 0;
#X connect 0 0 6 0;
#X connect 1 0 2 0;
#X connect 5 0 3 0;
#X connect 6 0 4 0;
#X restore 79 188 pd sel;
#N canvas 0 51 450 300 sel 0;
#X obj 74 63 inlet;
#X msg 74 85 1;
#X obj 74 107 outlet;
#X obj 124 107 outlet;
#X obj 174 107 outlet;
#X msg 124 85 0;
#X msg 174 85 0;
#X connect 0 0 1 0;
#X connect 0 0 5 0;
#X connect 0 0 6 0;
#X connect 1 0 2 0;
#X connect 5 0 3 0;
#X connect 6 0 4 0;
#X restore 129 188 pd sel;
#X floatatom 39 -53 5 0 0 0 - - -;
#X msg 113 -21 0;
#X obj 301 -92 inlet;
#X obj 301 50 unpack f f f f f f f f f f;
#X obj 291 80 pack f f f f;
#X obj 351 110 pack f f f f;
#X obj 401 140 pack f f f f;
#X obj 291 172 unpack f f f f;
#X obj 29 -1 t b b;
#X obj 79 40 t b b;
#X obj 129 69 t b b;
#X obj 29 -97 inlet;
#X obj 613 -92 inlet;
#X msg 613 -70 0;
#X obj 329 234 s gpio17;
#X obj 409 234 s gpio27;
#X obj 489 234 s gpio22;
#X obj 29 234 s gpio10;
#X obj 109 234 s gpio9;
#X obj 189 234 s gpio11;
#X connect 0 0 1 0;
#X connect 0 0 2 0;
#X connect 0 0 6 0;
#X connect 1 0 0 1;
#X connect 2 0 14 0;
#X connect 2 1 15 0;
#X connect 2 2 7 0;
#X connect 2 2 16 0;
#X connect 3 0 23 0;
#X connect 3 1 24 0;
#X connect 3 2 25 0;
#X connect 4 0 24 0;
#X connect 4 1 23 0;
#X connect 4 2 25 0;
#X connect 5 0 25 0;
#X connect 5 1 23 0;
#X connect 5 2 24 0;
#X connect 7 0 0 1;
#X connect 8 0 9 0;
#X connect 9 1 10 1;
#X connect 9 2 10 2;
#X connect 9 3 10 3;
#X connect 9 4 11 1;
#X connect 9 5 11 2;
#X connect 9 6 11 3;
#X connect 9 7 12 1;
#X connect 9 8 12 2;
#X connect 9 9 12 3;
#X connect 10 0 13 0;
#X connect 11 0 13 0;
#X connect 12 0 13 0;
#X connect 13 1 20 0;
#X connect 13 2 21 0;
#X connect 13 3 22 0;
#X connect 14 0 3 0;
#X connect 14 1 10 0;
#X connect 15 0 4 0;
#X connect 15 1 11 0;
#X connect 16 0 5 0;
#X connect 16 1 12 0;
#X connect 17 0 0 0;
#X connect 18 0 19 0;
#X connect 19 0 20 0;
#X connect 19 0 21 0;
#X connect 19 0 22 0;
#X restore 677 423 pd matrix;
#X obj 510 37 key;
#X floatatom 510 59 5 0 0 0 - - -;
#X obj 510 78 - 48;
#X floatatom 510 100 5 0 0 0 - - -;
#X obj 510 119 sel 1 2 3 4 5 6 7 8 9;
#X obj 851 47 tgl 15 0 mat1 bangMatrix empty 17 7 0 10 -262144 -1 -1
0 1;
#X obj 871 47 tgl 15 0 mat2 bangMatrix empty 17 7 0 10 -262144 -1 -1
1 1;
#X obj 891 47 tgl 15 0 mat3 bangMatrix empty 17 7 0 10 -262144 -1 -1
0 1;
#X obj 851 67 tgl 15 0 mat4 bangMatrix empty 17 7 0 10 -262144 -1 -1
1 1;
#X obj 871 67 tgl 15 0 mat5 bangMatrix empty 17 7 0 10 -262144 -1 -1
0 1;
#X obj 891 67 tgl 15 0 mat6 bangMatrix empty 17 7 0 10 -262144 -1 -1
1 1;
#X obj 851 87 tgl 15 0 mat7 bangMatrix empty 17 7 0 10 -262144 -1 -1
0 1;
#X obj 871 87 tgl 15 0 mat8 bangMatrix empty 17 7 0 10 -262144 -1 -1
1 1;
#X obj 891 87 tgl 15 0 mat9 bangMatrix empty 17 7 0 10 -262144 -1 -1
0 1;
#X obj 838 154 r mat1;
#X obj 848 174 r mat2;
#X obj 858 194 r mat3;
#X obj 868 214 r mat4;
#X obj 878 234 r mat5;
#X obj 888 254 r mat6;
#X obj 898 274 r mat7;
#X obj 908 294 r mat8;
#X obj 918 314 r mat9;
#X obj 700 368 pack f f f f f f f f f f;
#X obj 709 88 tgl 15 0 empty empty empty 17 7 0 10 -262144 -1 -1 0
1;
#X obj 820 174 f 0;
#X obj 830 194 f 0;
#X obj 840 214 f 0;
#X obj 850 234 f 0;
#X obj 860 254 f 0;
#X obj 870 274 f 0;
#X obj 880 294 f 0;
#X obj 890 314 f 0;
#X obj 900 334 f 0;
#X obj 709 143 t b b;
#X obj 685 68 bang~;
#X obj 677 175 t b b b;
#X obj 709 108 metro 1;
#X connect 1 0 19 0;
#X connect 2 0 0 0;
#X connect 2 0 14 0;
#X connect 2 0 15 0;
#X connect 2 0 16 0;
#X connect 2 0 17 0;
#X connect 2 0 18 0;
#X connect 3 0 21 0;
#X connect 4 0 23 0;
#X connect 5 0 20 0;
#X connect 6 0 22 0;
#X connect 7 0 24 0;
#X connect 8 0 19 0;
#X connect 9 0 21 0;
#X connect 10 0 23 0;
#X connect 11 0 20 0;
#X connect 12 0 22 0;
#X connect 13 0 24 0;
#X connect 26 0 27 0;
#X connect 27 0 28 0;
#X connect 28 0 29 0;
#X connect 29 0 30 0;
#X connect 40 0 51 1;
#X connect 41 0 52 1;
#X connect 42 0 53 1;
#X connect 43 0 54 1;
#X connect 44 0 55 1;
#X connect 45 0 56 1;
#X connect 46 0 57 1;
#X connect 47 0 58 1;
#X connect 48 0 59 1;
#X connect 49 0 25 1;
#X connect 50 0 63 0;
#X connect 51 0 49 1;
#X connect 52 0 49 2;
#X connect 53 0 49 3;
#X connect 54 0 49 4;
#X connect 55 0 49 5;
#X connect 56 0 49 6;
#X connect 57 0 49 7;
#X connect 58 0 49 8;
#X connect 59 0 49 9;
#X connect 60 0 62 0;
#X connect 60 1 51 0;
#X connect 60 1 52 0;
#X connect 60 1 53 0;
#X connect 60 1 54 0;
#X connect 60 1 55 0;
#X connect 60 1 56 0;
#X connect 60 1 57 0;
#X connect 60 1 58 0;
#X connect 60 1 59 0;
#X connect 61 0 60 0;
#X connect 62 0 25 0;
#X connect 62 1 49 0;
#X connect 62 2 25 2;
#X connect 63 0 60 0;
