#N canvas 0 51 741 453 10;
#X obj 94 58 inlet;
#X obj 94 102 s gpio\$1;
#X obj 114 122 s gpio\$2;
#X obj 135 142 s gpio\$3;
#X obj 155 163 s gpio\$4;
#X obj 176 182 s gpio\$5;
#X obj 197 202 s gpio\$6;
#X obj 217 222 s gpio\$7;
#X obj 238 242 s gpio\$8;
#X obj 94 80 unpack f f f f f f f f;
#X connect 0 0 9 0;
#X connect 9 0 1 0;
#X connect 9 1 2 0;
#X connect 9 2 3 0;
#X connect 9 3 4 0;
#X connect 9 4 5 0;
#X connect 9 5 6 0;
#X connect 9 6 7 0;
#X connect 9 7 8 0;
