#N canvas 515 262 450 300 10;
#X obj 83 29 inlet;
#X obj 83 145 s gpio\$1;
#X msg 153 93 open 1;
#X msg 83 93 enable 1;
#X msg 212 93 output 0;
#X obj 83 51 t b b b;
#X connect 0 0 5 0;
#X connect 2 0 1 0;
#X connect 3 0 1 0;
#X connect 4 0 1 0;
#X connect 5 0 4 0;
#X connect 5 1 2 0;
#X connect 5 2 3 0;
